{
	"asset":{
		"generator":"Khronos glTF Blender I/O v3.5.30",
		"version":"2.0"
	},
	"extensionsUsed":[
		"KHR_materials_specular",
		"KHR_materials_ior"
	],
	"scene":0,
	"scenes":[
		{
			"name":"Scene",
			"nodes":[
				7
			]
		}
	],
	"nodes":[
		{
			"mesh":0,
			"name":"Cone",
			"translation":[
				2.7391297817230225,
				1,
				2.7844018936157227
			]
		},
		{
			"mesh":1,
			"name":"Cube",
			"translation":[
				-2.7465691566467285,
				1,
				2.8125271797180176
			]
		},
		{
			"mesh":2,
			"name":"Cylinder",
			"translation":[
				2.8115296363830566,
				1,
				-2.7785046100616455
			]
		},
		{
			"mesh":3,
			"name":"Icosphere",
			"translation":[
				-2.816803216934204,
				1,
				-2.8034472465515137
			]
		},
		{
			"mesh":4,
			"name":"Plane.001",
			"scale":[
				0.800000011920929,
				0.800000011920929,
				0.800000011920929
			],
			"translation":[
				0.003242072183638811,
				0.007771159987896681,
				0.0020887309219688177
			]
		},
		{
			"children":[
				4
			],
			"mesh":5,
			"name":"Plane",
			"scale":[
				5,
				5,
				5
			]
		},
		{
			"mesh":6,
			"name":"Torus",
			"translation":[
				0,
				0.25,
				0
			]
		},
		{
			"children":[
				0,
				1,
				2,
				3,
				5,
				6
			],
			"name":"root"
		}
	],
	"materials":[
		{
			"doubleSided":true,
			"extensions":{
				"KHR_materials_specular":{
					"specularColorFactor":[
						2.371357614441398,
						2.371357614441398,
						2.371357614441398
					]
				},
				"KHR_materials_ior":{
					"ior":1.4500000476837158
				}
			},
			"name":"Material.003",
			"pbrMetallicRoughness":{
				"baseColorFactor":[
					0.8000000715255737,
					0.08515650033950806,
					0.6200984120368958,
					1
				],
				"metallicFactor":0.25,
				"roughnessFactor":0.75
			}
		},
		{
			"doubleSided":true,
			"extensions":{
				"KHR_materials_specular":{
					"specularColorFactor":[
						2.371357614441398,
						2.371357614441398,
						2.371357614441398
					]
				},
				"KHR_materials_ior":{
					"ior":1.4500000476837158
				}
			},
			"name":"Material.006",
			"pbrMetallicRoughness":{
				"baseColorFactor":[
					0.38156941533088684,
					0.8000000715255737,
					0.036559682339429855,
					1
				],
				"metallicFactor":0.75,
				"roughnessFactor":0.25
			}
		},
		{
			"doubleSided":true,
			"extensions":{
				"KHR_materials_specular":{
					"specularColorFactor":[
						2.371357614441398,
						2.371357614441398,
						2.371357614441398
					]
				},
				"KHR_materials_ior":{
					"ior":1.4500000476837158
				}
			},
			"name":"Material.002",
			"pbrMetallicRoughness":{
				"baseColorFactor":[
					0.8000000715255737,
					0.714122474193573,
					0.04545041546225548,
					1
				],
				"metallicFactor":0
			}
		},
		{
			"doubleSided":true,
			"extensions":{
				"KHR_materials_specular":{
					"specularColorFactor":[
						2.371357614441398,
						2.371357614441398,
						2.371357614441398
					]
				},
				"KHR_materials_ior":{
					"ior":1.4500000476837158
				}
			},
			"name":"Material.004",
			"pbrMetallicRoughness":{
				"baseColorFactor":[
					0.8000000715255737,
					0.05622244253754616,
					0.008318844251334667,
					1
				],
				"roughnessFactor":0
			}
		},
		{
			"doubleSided":true,
			"name":"Material.007",
			"pbrMetallicRoughness":{
				"baseColorFactor":[
					0.0036421341355890036,
					0.0036421341355890036,
					0.0036421341355890036,
					1
				],
				"metallicFactor":0,
				"roughnessFactor":0.5
			}
		},
		{
			"doubleSided":true,
			"name":"Material.008",
			"pbrMetallicRoughness":{
				"baseColorFactor":[
					0.5795210003852844,
					0.8000000715255737,
					0.8000000715255737,
					1
				],
				"metallicFactor":0.14960630238056183,
				"roughnessFactor":0.9566929340362549
			}
		},
		{
			"doubleSided":true,
			"extensions":{
				"KHR_materials_specular":{
					"specularColorFactor":[
						2.371357614441398,
						2.371357614441398,
						2.371357614441398
					]
				},
				"KHR_materials_ior":{
					"ior":1.4500000476837158
				}
			},
			"name":"Material.005",
			"pbrMetallicRoughness":{
				"baseColorFactor":[
					0.017134306952357292,
					0.19473476707935333,
					0.8000000715255737,
					1
				],
				"metallicFactor":0.5,
				"roughnessFactor":0.5
			}
		}
	],
	"meshes":[
		{
			"name":"Cone.001",
			"primitives":[
				{
					"attributes":{
						"POSITION":0,
						"TEXCOORD_0":1,
						"NORMAL":2
					},
					"indices":3,
					"material":0
				}
			]
		},
		{
			"name":"Cube.001",
			"primitives":[
				{
					"attributes":{
						"POSITION":4,
						"TEXCOORD_0":5,
						"NORMAL":6
					},
					"indices":7,
					"material":1
				}
			]
		},
		{
			"name":"Cylinder",
			"primitives":[
				{
					"attributes":{
						"POSITION":8,
						"TEXCOORD_0":9,
						"NORMAL":10
					},
					"indices":11,
					"material":2
				}
			]
		},
		{
			"name":"Icosphere",
			"primitives":[
				{
					"attributes":{
						"POSITION":12,
						"TEXCOORD_0":13,
						"NORMAL":14
					},
					"indices":15,
					"material":3
				}
			]
		},
		{
			"name":"Plane.001",
			"primitives":[
				{
					"attributes":{
						"POSITION":16,
						"TEXCOORD_0":17,
						"NORMAL":18
					},
					"indices":19,
					"material":4
				}
			]
		},
		{
			"name":"Plane",
			"primitives":[
				{
					"attributes":{
						"POSITION":20,
						"TEXCOORD_0":21,
						"NORMAL":22
					},
					"indices":19,
					"material":5
				}
			]
		},
		{
			"name":"Torus",
			"primitives":[
				{
					"attributes":{
						"POSITION":23,
						"TEXCOORD_0":24,
						"NORMAL":25
					},
					"indices":26,
					"material":6
				}
			]
		}
	],
	"accessors":[
		{
			"bufferView":0,
			"componentType":5126,
			"count":128,
			"max":[
				1,
				1,
				1
			],
			"min":[
				-1,
				-1,
				-1
			],
			"type":"VEC3"
		},
		{
			"bufferView":1,
			"componentType":5126,
			"count":128,
			"type":"VEC2"
		},
		{
			"bufferView":2,
			"componentType":5126,
			"count":128,
			"type":"VEC3"
		},
		{
			"bufferView":3,
			"componentType":5123,
			"count":186,
			"type":"SCALAR"
		},
		{
			"bufferView":4,
			"componentType":5126,
			"count":24,
			"max":[
				1,
				1,
				1
			],
			"min":[
				-1,
				-1,
				-1
			],
			"type":"VEC3"
		},
		{
			"bufferView":5,
			"componentType":5126,
			"count":24,
			"type":"VEC2"
		},
		{
			"bufferView":6,
			"componentType":5126,
			"count":24,
			"type":"VEC3"
		},
		{
			"bufferView":7,
			"componentType":5123,
			"count":36,
			"type":"SCALAR"
		},
		{
			"bufferView":8,
			"componentType":5126,
			"count":192,
			"max":[
				1,
				1,
				1
			],
			"min":[
				-1,
				-1,
				-1
			],
			"type":"VEC3"
		},
		{
			"bufferView":9,
			"componentType":5126,
			"count":192,
			"type":"VEC2"
		},
		{
			"bufferView":10,
			"componentType":5126,
			"count":192,
			"type":"VEC3"
		},
		{
			"bufferView":11,
			"componentType":5123,
			"count":372,
			"type":"SCALAR"
		},
		{
			"bufferView":12,
			"componentType":5126,
			"count":240,
			"max":[
				0.9510578513145447,
				1,
				0.9999999403953552
			],
			"min":[
				-0.9510578513145447,
				-1,
				-0.9999999403953552
			],
			"type":"VEC3"
		},
		{
			"bufferView":13,
			"componentType":5126,
			"count":240,
			"type":"VEC2"
		},
		{
			"bufferView":14,
			"componentType":5126,
			"count":240,
			"type":"VEC3"
		},
		{
			"bufferView":15,
			"componentType":5123,
			"count":240,
			"type":"SCALAR"
		},
		{
			"bufferView":16,
			"componentType":5126,
			"count":24,
			"max":[
				1,
				0,
				1
			],
			"min":[
				-1,
				-0.009999999776482582,
				-1
			],
			"type":"VEC3"
		},
		{
			"bufferView":17,
			"componentType":5126,
			"count":24,
			"type":"VEC2"
		},
		{
			"bufferView":18,
			"componentType":5126,
			"count":24,
			"type":"VEC3"
		},
		{
			"bufferView":19,
			"componentType":5123,
			"count":36,
			"type":"SCALAR"
		},
		{
			"bufferView":20,
			"componentType":5126,
			"count":24,
			"max":[
				1,
				0,
				1
			],
			"min":[
				-1,
				-0.009999999776482582,
				-1
			],
			"type":"VEC3"
		},
		{
			"bufferView":21,
			"componentType":5126,
			"count":24,
			"type":"VEC2"
		},
		{
			"bufferView":22,
			"componentType":5126,
			"count":24,
			"type":"VEC3"
		},
		{
			"bufferView":23,
			"componentType":5126,
			"count":2304,
			"max":[
				1.25,
				0.25,
				1.25
			],
			"min":[
				-1.25,
				-0.25,
				-1.25
			],
			"type":"VEC3"
		},
		{
			"bufferView":24,
			"componentType":5126,
			"count":2304,
			"type":"VEC2"
		},
		{
			"bufferView":25,
			"componentType":5126,
			"count":2304,
			"type":"VEC3"
		},
		{
			"bufferView":26,
			"componentType":5123,
			"count":3456,
			"type":"SCALAR"
		}
	],
	"bufferViews":[
		{
			"buffer":0,
			"byteLength":1536,
			"byteOffset":0,
			"target":34962
		},
		{
			"buffer":0,
			"byteLength":1024,
			"byteOffset":1536,
			"target":34962
		},
		{
			"buffer":0,
			"byteLength":1536,
			"byteOffset":2560,
			"target":34962
		},
		{
			"buffer":0,
			"byteLength":372,
			"byteOffset":4096,
			"target":34963
		},
		{
			"buffer":0,
			"byteLength":288,
			"byteOffset":4468,
			"target":34962
		},
		{
			"buffer":0,
			"byteLength":192,
			"byteOffset":4756,
			"target":34962
		},
		{
			"buffer":0,
			"byteLength":288,
			"byteOffset":4948,
			"target":34962
		},
		{
			"buffer":0,
			"byteLength":72,
			"byteOffset":5236,
			"target":34963
		},
		{
			"buffer":0,
			"byteLength":2304,
			"byteOffset":5308,
			"target":34962
		},
		{
			"buffer":0,
			"byteLength":1536,
			"byteOffset":7612,
			"target":34962
		},
		{
			"buffer":0,
			"byteLength":2304,
			"byteOffset":9148,
			"target":34962
		},
		{
			"buffer":0,
			"byteLength":744,
			"byteOffset":11452,
			"target":34963
		},
		{
			"buffer":0,
			"byteLength":2880,
			"byteOffset":12196,
			"target":34962
		},
		{
			"buffer":0,
			"byteLength":1920,
			"byteOffset":15076,
			"target":34962
		},
		{
			"buffer":0,
			"byteLength":2880,
			"byteOffset":16996,
			"target":34962
		},
		{
			"buffer":0,
			"byteLength":480,
			"byteOffset":19876,
			"target":34963
		},
		{
			"buffer":0,
			"byteLength":288,
			"byteOffset":20356,
			"target":34962
		},
		{
			"buffer":0,
			"byteLength":192,
			"byteOffset":20644,
			"target":34962
		},
		{
			"buffer":0,
			"byteLength":288,
			"byteOffset":20836,
			"target":34962
		},
		{
			"buffer":0,
			"byteLength":72,
			"byteOffset":21124,
			"target":34963
		},
		{
			"buffer":0,
			"byteLength":288,
			"byteOffset":21196,
			"target":34962
		},
		{
			"buffer":0,
			"byteLength":192,
			"byteOffset":21484,
			"target":34962
		},
		{
			"buffer":0,
			"byteLength":288,
			"byteOffset":21676,
			"target":34962
		},
		{
			"buffer":0,
			"byteLength":27648,
			"byteOffset":21964,
			"target":34962
		},
		{
			"buffer":0,
			"byteLength":18432,
			"byteOffset":49612,
			"target":34962
		},
		{
			"buffer":0,
			"byteLength":27648,
			"byteOffset":68044,
			"target":34962
		},
		{
			"buffer":0,
			"byteLength":6912,
			"byteOffset":95692,
			"target":34963
		}
	],
	"buffers":[
		{
			"byteLength":102604,
			"uri":"demo_001.bin"
		}
	]
}
